<svg width="69" height="68" viewBox="0 0 69 68" fill="none" xmlns="http://www.w3.org/2000/svg">
<path d="M51.164 0.502584C51.64 0.699327 52.0469 1.03286 52.3332 1.46096C52.6196 1.88907 52.7725 2.3925 52.7725 2.90753V15.9213H65.7863C66.3018 15.9204 66.8059 16.0725 67.2347 16.3584C67.6636 16.6444 67.9979 17.0512 68.1953 17.5274C68.3927 18.0035 68.4443 18.5276 68.3434 19.0331C68.2426 19.5386 67.994 20.0028 67.6291 20.3668L57.218 30.7778C56.9759 31.0193 56.6885 31.2108 56.3723 31.3412C56.0561 31.4716 55.7173 31.5384 55.3753 31.5378H40.8363L36.9842 35.3951C37.1901 36.1668 37.2158 36.9755 37.0594 37.7587C36.9029 38.5419 36.5685 39.2787 36.082 39.9121C35.5955 40.5455 34.9699 41.0586 34.2535 41.4118C33.5372 41.7649 32.7492 41.9487 31.9505 41.9488C30.5699 41.9488 29.2459 41.4004 28.2697 40.4242C27.2934 39.4479 26.745 38.1239 26.745 36.7433L26.7502 36.5039C26.7859 35.7263 26.9955 34.9666 27.3637 34.2807C27.7318 33.5949 28.2491 33.0003 28.8774 32.5408C29.5057 32.0813 30.2291 31.7686 30.9942 31.6256C31.7594 31.4827 32.5469 31.5131 33.2987 31.7148L37.156 27.8575V13.3185C37.1554 12.9765 37.2222 12.6377 37.3526 12.3215C37.483 12.0053 37.6745 11.7179 37.916 11.4758L48.327 1.06478C48.6913 0.701007 49.1553 0.45343 49.6603 0.353359C50.1652 0.253288 50.6886 0.305219 51.164 0.502584ZM54.2977 26.3323L59.5033 21.1268H50.1698C49.4795 21.1268 48.8175 20.8526 48.3294 20.3645C47.8412 19.8764 47.567 19.2143 47.567 18.524V9.19057L42.3615 14.3961V26.3323H54.2977ZM62.8972 32.454C63.7954 38.9356 62.6351 45.5355 59.5802 51.3222C56.5253 57.1089 51.7302 61.7899 45.8716 64.7045C40.013 67.6191 33.387 68.6201 26.9289 67.5661C20.4708 66.5121 14.5069 63.4563 9.87903 58.8303C5.25116 54.2042 2.19311 48.2415 1.13658 41.7838C0.0800575 35.3261 1.07842 28.6997 3.99075 22.84C6.90307 16.9803 11.5822 12.1833 17.3677 9.12617C23.1532 6.06903 29.7527 4.90618 36.2346 5.80179L34.2409 7.7955C33.4158 8.6207 32.7861 9.62037 32.3982 10.721L31.9505 10.7158C26.7839 10.7165 21.7343 12.255 17.445 15.1352C13.1556 18.0155 9.82048 22.1071 7.86436 26.8892C5.90824 31.6712 5.41962 36.9273 6.46071 41.9879C7.50181 47.0486 10.0255 51.6849 13.7105 55.3065C17.3954 58.928 22.0748 61.3709 27.1528 62.3241C32.2308 63.2772 37.4775 62.6975 42.2249 60.6587C46.9723 58.6199 51.0055 55.2144 53.8109 50.8757C56.6163 46.537 58.0669 41.4615 57.978 36.2956C59.0745 35.9078 60.0704 35.28 60.8931 34.4581L62.892 32.454H62.8972ZM31.9505 18.524C28.3471 18.524 24.8246 19.5926 21.8284 21.5945C18.8323 23.5965 16.4971 26.442 15.1181 29.7711C13.7391 33.1002 13.3783 36.7635 14.0813 40.2977C14.7843 43.8319 16.5195 47.0783 19.0675 49.6263C21.6156 52.1743 24.8619 53.9095 28.3961 54.6125C31.9303 55.3155 35.5936 54.9547 38.9227 53.5757C42.2519 52.1967 45.0973 49.8615 47.0993 46.8654C49.1012 43.8692 50.1698 40.3467 50.1698 36.7433H44.9643C44.9643 39.3172 44.201 41.8333 42.7711 43.9734C41.3411 46.1135 39.3086 47.7815 36.9307 48.7665C34.5527 49.7514 31.9361 50.0091 29.4117 49.507C26.8872 49.0049 24.5684 47.7654 22.7484 45.9454C20.9284 44.1254 19.6889 41.8066 19.1868 39.2822C18.6847 36.7577 18.9424 34.1411 19.9274 31.7632C20.9123 29.3852 22.5803 27.3527 24.7205 25.9228C26.8606 24.4928 29.3766 23.7295 31.9505 23.7295V18.524Z" fill="#0007AE"/>
</svg>
