<svg width="12" height="12" viewBox="0 0 12 12" fill="none" xmlns="http://www.w3.org/2000/svg">
<path d="M6 11.625C4.88748 11.625 3.79995 11.2951 2.87492 10.677C1.94989 10.0589 1.22892 9.18043 0.80318 8.1526C0.377437 7.12476 0.266043 5.99376 0.483085 4.90262C0.700127 3.81148 1.23586 2.8092 2.02253 2.02253C2.8092 1.23586 3.81148 0.700127 4.90262 0.483085C5.99376 0.266043 7.12476 0.377437 8.1526 0.80318C9.18043 1.22892 10.0589 1.94989 10.677 2.87492C11.2951 3.79995 11.625 4.88748 11.625 6C11.6325 6.74078 11.4922 7.47561 11.2121 8.16146C10.9321 8.84732 10.5181 9.47041 9.99424 9.99424C9.47041 10.5181 8.84732 10.9321 8.16146 11.2121C7.47561 11.4922 6.74078 11.6325 6 11.625ZM6 2.25C5.50439 2.23846 5.01158 2.32756 4.55139 2.51193C4.0912 2.6963 3.67319 2.9721 3.32264 3.32264C2.9721 3.67319 2.6963 4.0912 2.51193 4.55139C2.32756 5.01158 2.23846 5.50439 2.25 6C2.23846 6.49562 2.32756 6.98842 2.51193 7.44861C2.6963 7.9088 2.9721 8.32681 3.32264 8.67736C3.67319 9.02791 4.0912 9.30371 4.55139 9.48807C5.01158 9.67244 5.50439 9.76155 6 9.75C6.49562 9.76155 6.98842 9.67244 7.44861 9.48807C7.9088 9.30371 8.32681 9.02791 8.67736 8.67736C9.02791 8.32681 9.30371 7.9088 9.48807 7.44861C9.67244 6.98842 9.76155 6.49562 9.75 6C9.76155 5.50439 9.67244 5.01158 9.48807 4.55139C9.30371 4.0912 9.02791 3.67319 8.67736 3.32264C8.32681 2.9721 7.9088 2.6963 7.44861 2.51193C6.98842 2.32756 6.49562 2.23846 6 2.25Z" fill="#0007AE"/>
</svg>
