<svg width="81" height="67" viewBox="0 0 81 67" fill="none" xmlns="http://www.w3.org/2000/svg">
<path d="M40.7021 41.2695C42.7416 44.3287 45.4729 46.8415 48.7142 48.5532L40.7021 56.5653L32.6901 48.5532C35.9313 46.8415 38.6991 44.3287 40.7021 41.2695ZM58.9113 23.7887C56.9796 23.7887 55.127 24.5561 53.761 25.922C52.395 27.288 51.6276 29.1406 51.6276 31.0724C51.6276 33.0041 52.395 34.8567 53.761 36.2227C55.127 37.5887 56.9796 38.356 58.9113 38.356C60.8431 38.356 62.6957 37.5887 64.0617 36.2227C65.4276 34.8567 66.195 33.0041 66.195 31.0724C66.195 29.1406 65.4276 27.288 64.0617 25.922C62.6957 24.5561 60.8431 23.7887 58.9113 23.7887ZM22.4929 23.7887C20.5612 23.7887 18.7085 24.5561 17.3426 25.922C15.9766 27.288 15.2092 29.1406 15.2092 31.0724C15.2092 33.0041 15.9766 34.8567 17.3426 36.2227C18.7085 37.5887 20.5612 38.356 22.4929 38.356C24.4247 38.356 26.2773 37.5887 27.6432 36.2227C29.0092 34.8567 29.7766 33.0041 29.7766 31.0724C29.7766 29.1406 29.0092 27.288 27.6432 25.922C26.2773 24.5561 24.4247 23.7887 22.4929 23.7887ZM58.9113 14.6841C62.7748 14.6841 66.4801 16.2188 69.212 18.9507C71.9439 21.6827 73.4787 25.3879 73.4787 29.2514C73.4787 33.1149 71.9439 36.8202 69.212 39.5521C66.4801 42.284 62.7748 43.8188 58.9113 43.8188C55.0478 43.8188 51.3426 42.284 48.6106 39.5521C45.8787 36.8202 44.344 33.1149 44.344 29.2514C44.344 25.3879 45.8787 21.6827 48.6106 18.9507C51.3426 16.2188 55.0478 14.6841 58.9113 14.6841ZM22.4929 14.6841C26.3564 14.6841 30.0617 16.2188 32.7936 18.9507C35.5255 21.6827 37.0603 25.3879 37.0603 29.2514C37.0603 33.1149 35.5255 36.8202 32.7936 39.5521C30.0617 42.284 26.3564 43.8188 22.4929 43.8188C18.6294 43.8188 14.9241 42.284 12.1922 39.5521C9.4603 36.8202 7.92553 33.1149 7.92553 29.2514C7.92553 25.3879 9.4603 21.6827 12.1922 18.9507C14.9241 16.2188 18.6294 14.6841 22.4929 14.6841ZM22.4929 0.116699C28.9025 13.5915 6.94223 10.1682 2.64486 20.1468C1.3338 23.0603 0.641846 26.083 0.641846 29.2514C0.641846 35.0467 2.944 40.6046 7.04187 44.7025C11.1397 48.8003 16.6976 51.1025 22.4929 51.1025C23.2577 51.0661 24.0225 51.0297 24.7873 50.9204L35.5671 61.7003L40.7021 66.7624L45.8371 61.7003L56.617 50.9204C57.3818 51.0297 58.1465 51.0661 58.9113 51.1025C64.7066 51.1025 70.2645 48.8003 74.3624 44.7025C78.4602 40.6046 80.7624 35.0467 80.7624 29.2514C80.7624 26.083 80.0704 23.0603 78.7594 20.1468C74.462 10.1682 57.652 14.5384 64.0617 1.06357C54.4472 8.56577 54.1041 10.3503 41.8675 10.3867C29.6309 10.3503 32.1074 7.6189 22.4929 0.116699Z" fill="#0007AE"/>
</svg>
