<svg width="28" height="24" viewBox="0 0 28 24" fill="none" xmlns="http://www.w3.org/2000/svg">
<path d="M1.70455 3.48508C3.21307 2.81769 5.37614 2.098 7.47955 1.87433C9.74659 1.63263 11.6693 1.98797 12.7841 3.23075V20.8101C11.1903 19.8541 9.17045 19.7225 7.30739 19.9209C5.29602 20.1373 3.26761 20.7524 1.70455 21.3837V3.48508ZM14.4886 3.23075C15.6034 1.98797 17.5261 1.63263 19.7932 1.87433C21.8966 2.098 24.0597 2.81769 25.5682 3.48508V21.3837C24.0034 20.7524 21.9767 20.1355 19.9653 19.9227C18.1006 19.7225 16.0824 19.8523 14.4886 20.8101V3.23075ZM13.6364 1.60016C11.9574 0.0723826 9.5233 -0.15489 7.30739 0.0795976C4.7267 0.355572 2.12216 1.29172 0.499432 2.07274C0.350538 2.1444 0.224276 2.25989 0.135718 2.40542C0.0471591 2.55094 4.52922e-05 2.72036 0 2.89345L0 22.7347C3.94807e-05 22.8856 0.0358588 23.0341 0.104177 23.1666C0.172495 23.299 0.271128 23.4112 0.391041 23.4929C0.510954 23.5745 0.648315 23.6231 0.79054 23.634C0.932765 23.6449 1.07531 23.6179 1.20511 23.5554C2.70852 22.8339 5.13068 21.9663 7.47784 21.7156C9.87955 21.4595 11.8926 21.8725 12.9716 23.2975C13.0515 23.4028 13.1526 23.4879 13.2677 23.5463C13.3828 23.6047 13.5087 23.635 13.6364 23.635C13.764 23.635 13.89 23.6047 14.005 23.5463C14.1201 23.4879 14.2213 23.4028 14.3011 23.2975C15.3801 21.8725 17.3932 21.4595 19.7932 21.7156C22.142 21.9663 24.5659 22.8339 26.0676 23.5554C26.1974 23.6179 26.34 23.6449 26.4822 23.634C26.6244 23.6231 26.7618 23.5745 26.8817 23.4929C27.0016 23.4112 27.1002 23.299 27.1686 23.1666C27.2369 23.0341 27.2727 22.8856 27.2727 22.7347V2.89345C27.2727 2.72036 27.2256 2.55094 27.137 2.40542C27.0485 2.25989 26.9222 2.1444 26.7733 2.07274C25.1506 1.29172 22.546 0.355572 19.9653 0.0795976C17.7494 -0.156694 15.3153 0.0723826 13.6364 1.60016Z" fill="#0007AE"/>
</svg>
