<svg width="63" height="53" viewBox="0 0 63 53" fill="none" xmlns="http://www.w3.org/2000/svg">
<path d="M62.0592 1.73784H17.5308C17.1953 1.73784 16.9208 2.01233 16.9208 2.34782V6.61767C16.9208 6.95316 17.1953 7.22765 17.5308 7.22765H62.0592C62.3947 7.22765 62.6692 6.95316 62.6692 6.61767V2.34782C62.6692 2.01233 62.3947 1.73784 62.0592 1.73784ZM62.0592 23.3921H17.5308C17.1953 23.3921 16.9208 23.6666 16.9208 24.0021V28.2719C16.9208 28.6074 17.1953 28.8819 17.5308 28.8819H62.0592C62.3947 28.8819 62.6692 28.6074 62.6692 28.2719V24.0021C62.6692 23.6666 62.3947 23.3921 62.0592 23.3921ZM62.0592 45.0463H17.5308C17.1953 45.0463 16.9208 45.3208 16.9208 45.6563V49.9262C16.9208 50.2616 17.1953 50.5361 17.5308 50.5361H62.0592C62.3947 50.5361 62.6692 50.2616 62.6692 49.9262V45.6563C62.6692 45.3208 62.3947 45.0463 62.0592 45.0463ZM0.451355 4.48274C0.451355 5.04347 0.561798 5.5987 0.776378 6.11674C0.990958 6.63478 1.30547 7.10549 1.70197 7.50198C2.09846 7.89848 2.56916 8.21299 3.0872 8.42757C3.60525 8.64215 4.16048 8.75259 4.72121 8.75259C5.28193 8.75259 5.83716 8.64215 6.35521 8.42757C6.87325 8.21299 7.34395 7.89848 7.74045 7.50198C8.13694 7.10549 8.45145 6.63478 8.66603 6.11674C8.88061 5.5987 8.99106 5.04347 8.99106 4.48274C8.99106 3.92202 8.88061 3.36678 8.66603 2.84874C8.45145 2.3307 8.13694 1.85999 7.74045 1.4635C7.34395 1.06701 6.87325 0.752493 6.35521 0.537913C5.83716 0.323333 5.28193 0.212891 4.72121 0.212891C4.16048 0.212891 3.60525 0.323333 3.0872 0.537913C2.56916 0.752493 2.09846 1.06701 1.70197 1.4635C1.30547 1.85999 0.990958 2.3307 0.776378 2.84874C0.561798 3.36678 0.451355 3.92202 0.451355 4.48274ZM0.451355 26.137C0.451355 26.6977 0.561798 27.2529 0.776378 27.771C0.990958 28.289 1.30547 28.7597 1.70197 29.1562C2.09846 29.5527 2.56916 29.8672 3.0872 30.0818C3.60525 30.2964 4.16048 30.4068 4.72121 30.4068C5.28193 30.4068 5.83716 30.2964 6.35521 30.0818C6.87325 29.8672 7.34395 29.5527 7.74045 29.1562C8.13694 28.7597 8.45145 28.289 8.66603 27.771C8.88061 27.2529 8.99106 26.6977 8.99106 26.137C8.99106 25.5763 8.88061 25.021 8.66603 24.503C8.45145 23.9849 8.13694 23.5142 7.74045 23.1177C7.34395 22.7213 6.87325 22.4067 6.35521 22.1922C5.83716 21.9776 5.28193 21.8671 4.72121 21.8671C4.16048 21.8671 3.60525 21.9776 3.0872 22.1922C2.56916 22.4067 2.09846 22.7213 1.70197 23.1177C1.30547 23.5142 0.990958 23.9849 0.776378 24.503C0.561798 25.021 0.451355 25.5763 0.451355 26.137ZM0.451355 47.7912C0.451355 48.352 0.561798 48.9072 0.776378 49.4252C0.990958 49.9433 1.30547 50.414 1.70197 50.8105C2.09846 51.207 2.56916 51.5215 3.0872 51.7361C3.60525 51.9506 4.16048 52.0611 4.72121 52.0611C5.28193 52.0611 5.83716 51.9506 6.35521 51.7361C6.87325 51.5215 7.34395 51.207 7.74045 50.8105C8.13694 50.414 8.45145 49.9433 8.66603 49.4252C8.88061 48.9072 8.99106 48.352 8.99106 47.7912C8.99106 47.2305 8.88061 46.6753 8.66603 46.1572C8.45145 45.6392 8.13694 45.1685 7.74045 44.772C7.34395 44.3755 6.87325 44.061 6.35521 43.8464C5.83716 43.6318 5.28193 43.5214 4.72121 43.5214C4.16048 43.5214 3.60525 43.6318 3.0872 43.8464C2.56916 44.061 2.09846 44.3755 1.70197 44.772C1.30547 45.1685 0.990958 45.6392 0.776378 46.1572C0.561798 46.6753 0.451355 47.2305 0.451355 47.7912Z" fill="#0007AE"/>
</svg>
