<svg width="28" height="28" viewBox="0 0 28 28" fill="none" xmlns="http://www.w3.org/2000/svg">
<path d="M26.5514 4.41512L13.9648 0.05127C13.7512 -0.01709 13.5228 -0.01709 13.3092 0.05127L0.73578 4.41512H0.709558L0.578448 4.4833H0.565337L0.434227 4.56512C0.434227 4.57876 0.421116 4.57876 0.408005 4.5924L0.303117 4.68786L0.21134 4.79695C0.21134 4.81059 0.198229 4.81059 0.198229 4.82423L0.119563 4.94696C0.119563 4.9606 0.119563 4.9606 0.106452 4.97424L0.0540075 5.09697L0.0146746 5.24698V5.28789C0.00174243 5.34132 -0.0026866 5.3966 0.00156355 5.45153V16.3611C0.00156355 16.6505 0.11207 16.928 0.308774 17.1326C0.505477 17.3372 0.772264 17.4521 1.05044 17.4521C1.32862 17.4521 1.59541 17.3372 1.79212 17.1326C1.98882 16.928 2.09933 16.6505 2.09933 16.3611V6.96524L6.50462 8.49259C5.67701 9.87047 5.24068 11.4636 5.24597 13.0883C5.24645 14.5658 5.60759 16.0191 6.29554 17.3119C6.98349 18.6046 7.97573 19.6946 9.17927 20.4795C6.67821 21.4636 4.54303 23.2499 3.08265 25.5798C2.9338 25.8246 2.88337 26.1205 2.94222 26.4036C3.00108 26.6867 3.16452 26.9345 3.39732 27.0935C3.51156 27.1722 3.63969 27.2266 3.77428 27.2534C3.90887 27.2803 4.04725 27.2791 4.1814 27.2499C4.31554 27.2208 4.44279 27.1642 4.55576 27.0835C4.66873 27.0028 4.76518 26.8996 4.83953 26.7798C5.79155 25.2545 7.09506 24.001 8.63152 23.1331C10.168 22.2653 11.8886 21.8107 13.637 21.8107C15.3854 21.8107 17.1061 22.2653 18.6425 23.1331C20.179 24.001 21.4825 25.2545 22.4345 26.7798C22.5303 26.9311 22.6607 27.0551 22.814 27.1408C22.9674 27.2265 23.1389 27.2712 23.3129 27.2708C23.5139 27.273 23.7106 27.2111 23.8767 27.0935C24.1095 26.9345 24.2729 26.6867 24.3318 26.4036C24.3907 26.1205 24.3402 25.8246 24.1914 25.5798C22.731 23.2499 20.5958 21.4636 18.0948 20.4795C19.2983 19.6946 20.2905 18.6046 20.9785 17.3119C21.6664 16.0191 22.0276 14.5658 22.0281 13.0883C22.0333 11.4636 21.597 9.87047 20.7694 8.49259L26.5514 6.48794C26.7612 6.4162 26.9439 6.27738 27.0735 6.09128C27.203 5.90518 27.2727 5.68128 27.2727 5.45153C27.2727 5.22178 27.203 4.99789 27.0735 4.81178C26.9439 4.62568 26.7612 4.48686 26.5514 4.41512ZM19.9303 13.0883C19.9303 14.8243 19.2673 16.4893 18.087 17.7168C16.9068 18.9444 15.3061 19.634 13.637 19.634C11.9679 19.634 10.3672 18.9444 9.18699 17.7168C8.00677 16.4893 7.34373 14.8243 7.34373 13.0883C7.34626 11.6915 7.77301 10.3312 8.56305 9.20171L13.3092 10.8518C13.5221 10.9246 13.7519 10.9246 13.9648 10.8518L18.711 9.20171C19.501 10.3312 19.9278 11.6915 19.9303 13.0883ZM18.711 6.91069H18.6979L13.637 8.66987L8.57617 6.91069H8.56305L4.36753 5.45153L13.637 2.23319L22.9065 5.45153L18.711 6.91069Z" fill="#0007AE"/>
</svg>
